<svg width="22" height="19" viewBox="0 0 22 19" fill="none" xmlns="http://www.w3.org/2000/svg">
<path d="M13.7482 12.8869L15.3257 12.8419C15.3435 12.8414 15.3598 12.8356 15.3711 12.8258C15.3804 12.8178 15.3852 12.8079 15.3855 12.7966L15.391 12.5976C15.3912 12.5858 15.3849 12.5724 15.3741 12.5629C15.3681 12.5575 15.3581 12.5512 15.345 12.5514L14.0658 12.5686L13.7482 12.8869Z" fill="#BFBFBF"/>
<path d="M12.0768 3.86447L13.3542 3.93089C13.3694 3.9318 13.3805 3.92416 13.3858 3.91954C13.3962 3.91048 13.4024 3.89814 13.4028 3.88571L13.4067 3.68798C13.4076 3.65991 13.3781 3.64196 13.349 3.63995L11.7758 3.53352L12.0768 3.86447Z" fill="#BFBFBF"/>
<path d="M11.941 14.7064L13.5182 14.6611C13.5362 14.6607 13.5527 14.6547 13.5641 14.6448C13.5735 14.6366 13.5784 14.6268 13.5788 14.6156L13.5836 14.4173C13.5838 14.4048 13.5777 14.3919 13.5669 14.3823C13.5607 14.3769 13.5506 14.3705 13.537 14.3706L12.2583 14.3878L11.941 14.7064Z" fill="#BFBFBF"/>
<path d="M13.7911 5.75213L15.0692 5.81919C15.0835 5.81982 15.0949 5.81201 15.1003 5.80726C15.1106 5.79835 15.1167 5.78613 15.117 5.77378L15.122 5.57471C15.1226 5.54708 15.0924 5.52993 15.0636 5.52794L13.4903 5.42144L13.7911 5.75213Z" fill="#BFBFBF"/>
<path d="M15.6606 10.5434C15.6895 10.5143 15.7331 10.4999 15.7766 10.505C17.9349 10.7577 19.4642 10.6154 20.5893 10.0571C20.5898 10.0568 20.5903 10.0567 20.5908 10.0565C20.5913 10.0563 20.5916 10.056 20.5921 10.0558C20.7343 9.9886 21.106 9.75664 21.1157 9.49467C21.1224 9.31046 20.9547 9.12309 20.617 8.93774C19.5199 8.33585 17.9995 8.13444 15.8322 8.30396C15.7884 8.30737 15.7456 8.2913 15.7181 8.2611L9.62101 1.56924L8.8031 1.66567L11.8652 7.73944C11.8816 7.77218 11.8801 7.80985 11.8609 7.84143C11.8416 7.87309 11.807 7.89501 11.7669 7.90103L6.19892 8.73139C6.15044 8.73862 6.10145 8.72138 6.07189 8.6867L4.37902 6.69951L3.53981 6.60472L4.20959 8.64628C4.22016 8.67845 4.21444 8.71306 4.19392 8.74122C4.17351 8.76937 4.1402 8.78837 4.10266 8.7933L3.55235 8.86564L3.1063 9.15786L3.53691 9.46727L4.08368 9.56059C4.12091 9.56696 4.15325 9.58722 4.17235 9.61617C4.19141 9.64508 4.19545 9.67992 4.18329 9.71161L3.41271 11.7263L4.25547 11.664L6.04568 9.74475C6.07713 9.71108 6.12675 9.69594 6.17483 9.70505L11.6957 10.7499C11.7354 10.7573 11.769 10.7807 11.7866 10.813C11.8043 10.8453 11.804 10.883 11.7858 10.9151L8.42476 16.864L9.23779 16.9924L15.6606 10.5434Z" fill="#BFBFBF"/>
</svg>
