<svg width="34" height="32" viewBox="0 0 34 32" fill="none" xmlns="http://www.w3.org/2000/svg">
<circle cx="16" cy="16" r="16" fill="#FFE7DE"/>
<path d="M18.331 4.91784L20.5541 2.86649C20.5791 2.84324 20.6104 2.83032 20.6405 2.83032C20.6656 2.83032 20.6872 2.83908 20.7049 2.85615L21.0155 3.15675C21.0339 3.17483 21.0457 3.204 21.0454 3.23317C21.0453 3.24968 21.0412 3.27293 21.0231 3.29013L19.2498 4.98349L18.331 4.91784Z" fill="#F16A36"/>
<path d="M29.7959 21.1303L31.4393 19.31C31.4588 19.2881 31.4855 19.2851 31.4998 19.2851C31.5278 19.2851 31.5551 19.2959 31.5745 19.3146L31.8812 19.6153C31.9253 19.6575 31.9122 19.7251 31.8756 19.7673L29.889 22.0474L29.7959 21.1303Z" fill="#F16A36"/>
<path d="M13.0902 4.53138L15.3134 2.48079C15.3386 2.45729 15.3703 2.44424 15.401 2.44424C15.4262 2.44424 15.448 2.45288 15.4655 2.4697L15.7742 2.77029C15.7934 2.78926 15.8049 2.81754 15.8047 2.84684C15.8046 2.86347 15.8005 2.8871 15.7817 2.90506L14.0091 4.59779L13.0902 4.53138Z" fill="#F16A36"/>
<path d="M29.2608 15.9035L30.9043 14.0812C30.9229 14.061 30.9503 14.0578 30.965 14.0578C30.9926 14.0578 31.0196 14.0685 31.0388 14.0872L31.349 14.3886C31.3919 14.4305 31.3768 14.4977 31.3405 14.5395L29.3539 16.8198L29.2608 15.9035Z" fill="#F16A36"/>
<path d="M24.5137 5.97367C24.5977 5.97985 24.6791 5.94349 24.7308 5.87709C27.2936 2.58411 29.5992 0.748168 31.9866 0.0994139C31.9877 0.0991619 31.9885 0.0986578 31.9895 0.0982797C31.9904 0.0980277 31.9914 0.0980278 31.9923 0.0977757C32.289 0.010515 33.1501 -0.130236 33.5625 0.26228C33.8524 0.538301 33.9088 1.05386 33.73 1.79479C33.1487 4.20149 31.379 6.55753 28.1605 9.20925C28.0955 9.26281 28.0616 9.34522 28.0699 9.42901L29.9391 27.9848L28.675 28.9353L23.6024 15.4169C23.575 15.3441 23.5156 15.2878 23.4412 15.2648C23.3666 15.2417 23.2859 15.2544 23.222 15.2989L14.3519 21.5002C14.2746 21.5542 14.234 21.6467 14.2464 21.7402L14.9622 27.0922L13.9605 28.3673L11.7645 24.3067C11.7299 24.2427 11.6693 24.1968 11.5984 24.1808C11.5276 24.1647 11.4532 24.1801 11.3944 24.2229L10.5325 24.8509L9.47804 24.9983L9.59472 23.9404L10.1993 23.0608C10.2405 23.0009 10.2537 22.926 10.2357 22.8555C10.2177 22.7851 10.1701 22.7258 10.1052 22.6931L5.98288 20.6107L7.22885 19.574L12.5984 20.1377C12.6927 20.1475 12.7836 20.1042 12.8353 20.0255L18.7839 10.9851C18.8267 10.9201 18.8371 10.8389 18.8118 10.7652C18.7867 10.6915 18.7289 10.6335 18.6552 10.6083L4.99995 5.91943L5.91471 4.62746L24.5137 5.97367Z" fill="#F16A36"/>
</svg>
