<svg width="17" height="17" viewBox="0 0 17 17" fill="none" xmlns="http://www.w3.org/2000/svg">
<path d="M10.639 11.2963L11.8357 11.2576C11.8492 11.2572 11.8616 11.2522 11.8701 11.2438C11.8772 11.2368 11.8808 11.2283 11.8811 11.2186L11.8852 11.0476C11.8854 11.0374 11.8806 11.0259 11.8724 11.0177C11.8678 11.0131 11.8602 11.0077 11.8503 11.0078L10.8799 11.0226L10.639 11.2963Z" fill="#F16A36"/>
<path d="M9.37112 3.53957L10.3401 3.59667C10.3517 3.59745 10.3601 3.59088 10.3641 3.58691C10.372 3.57912 10.3767 3.56851 10.377 3.55783L10.38 3.38784C10.3807 3.3637 10.3583 3.34827 10.3362 3.34654L9.14271 3.25504L9.37112 3.53957Z" fill="#F16A36"/>
<path d="M9.2681 12.8606L10.4646 12.8217C10.4782 12.8213 10.4908 12.8162 10.4995 12.8077C10.5066 12.8007 10.5103 12.7922 10.5106 12.7826L10.5142 12.6121C10.5144 12.6014 10.5097 12.5902 10.5015 12.582C10.4969 12.5773 10.4892 12.5718 10.4789 12.572L9.50885 12.5867L9.2681 12.8606Z" fill="#F16A36"/>
<path d="M10.6715 5.16255L11.6411 5.2202C11.6519 5.22074 11.6606 5.21402 11.6647 5.20995C11.6725 5.20228 11.6771 5.19177 11.6774 5.18116L11.6812 5.01001C11.6816 4.98626 11.6587 4.97152 11.6369 4.96981L10.4433 4.87825L10.6715 5.16255Z" fill="#F16A36"/>
<path d="M12.0898 9.28166C12.1118 9.25661 12.1448 9.24424 12.1778 9.24863C13.8151 9.46584 14.9753 9.34349 15.8289 8.86355C15.8292 8.86332 15.8296 8.86324 15.83 8.86306C15.8303 8.86287 15.8306 8.86261 15.8309 8.86242C15.9388 8.80467 16.2208 8.60525 16.2281 8.38002C16.2333 8.22165 16.106 8.06057 15.8499 7.90122C15.0176 7.38377 13.8642 7.21061 12.22 7.35636C12.1868 7.35929 12.1543 7.34547 12.1334 7.31951L7.50807 1.5664L6.88759 1.6493L9.21054 6.87102C9.22304 6.89918 9.22188 6.93156 9.20728 6.95871C9.19268 6.98593 9.16639 7.00477 9.136 7.00994L4.91201 7.72382C4.87522 7.73004 4.83806 7.71522 4.81563 7.6854L3.53139 5.97698L2.89475 5.89549L3.40286 7.65065C3.41087 7.67831 3.40653 7.70806 3.39096 7.73227C3.37549 7.75647 3.35021 7.77281 3.32173 7.77705L2.90426 7.83923L2.56588 8.09046L2.89255 8.35647L3.30734 8.4367C3.33558 8.44217 3.36011 8.45959 3.37461 8.48448C3.38907 8.50934 3.39213 8.53929 3.3829 8.56653L2.79833 10.2986L3.43766 10.2451L4.79575 8.59502C4.81961 8.56608 4.85725 8.55306 4.89373 8.56089L9.082 9.45914C9.11212 9.46557 9.13758 9.48561 9.15093 9.51342C9.16432 9.54117 9.1641 9.57358 9.15031 9.60116L6.60057 14.7156L7.21735 14.826L12.0898 9.28166Z" fill="#F16A36"/>
</svg>
